<?xml version="1.0" encoding="UTF-8" standalone="no"?>
<!DOCTYPE svg PUBLIC "-//W3C//DTD SVG 1.1//EN"
 "http://www.w3.org/Graphics/SVG/1.1/DTD/svg11.dtd">
<!-- Generated by graphviz version 2.38.0 (20140413.2041)
 -->
<!-- Title: controllers_diagram Pages: 1 -->
<svg width="716pt" height="827pt"
 viewBox="0.00 0.00 716.00 826.50" xmlns="http://www.w3.org/2000/svg" xmlns:xlink="http://www.w3.org/1999/xlink">
<g id="graph0" class="graph" transform="scale(1 1) rotate(0) translate(345.5 480.5)">
<title>controllers_diagram</title>
<polygon fill="none" stroke="none" points="-345.5,346 -345.5,-480.5 370.5,-480.5 370.5,346 -345.5,346"/>
<!-- _diagram_info -->
<g id="node1" class="node"><title>_diagram_info</title>
<text text-anchor="start" x="8" y="183.4" font-family="Times,serif" font-size="13.00">Controllers diagram</text>
<text text-anchor="start" x="8" y="197.4" font-family="Times,serif" font-size="13.00">Date: May 04 2016 &#45; 15:15</text>
<text text-anchor="start" x="8" y="211.4" font-family="Times,serif" font-size="13.00">Migration version: 20160504120454</text>
<text text-anchor="start" x="8" y="225.4" font-family="Times,serif" font-size="13.00">Generated by RailRoady 1.4.2</text>
<text text-anchor="start" x="8" y="239.4" font-family="Times,serif" font-size="13.00">http://railroady.prestonlee.com</text>
</g>
<!-- FilmsController -->
<g id="node2" class="node"><title>FilmsController</title>
<path fill="none" stroke="black" d="M-178,94C-178,94 -98,94 -98,94 -92,94 -86,88 -86,82 -86,82 -86,-122 -86,-122 -86,-128 -92,-134 -98,-134 -98,-134 -178,-134 -178,-134 -184,-134 -190,-128 -190,-122 -190,-122 -190,82 -190,82 -190,88 -184,94 -178,94"/>
<text text-anchor="middle" x="-138" y="-118.8" font-family="Times,serif" font-size="14.00">FilmsController</text>
<polyline fill="none" stroke="black" points="-190,-111 -86,-111 "/>
<text text-anchor="start" x="-182" y="-95.8" font-family="Times,serif" font-size="14.00">create</text>
<text text-anchor="start" x="-182" y="-80.8" font-family="Times,serif" font-size="14.00">destroy</text>
<text text-anchor="start" x="-182" y="-65.8" font-family="Times,serif" font-size="14.00">edit</text>
<text text-anchor="start" x="-182" y="-50.8" font-family="Times,serif" font-size="14.00">index</text>
<text text-anchor="start" x="-182" y="-35.8" font-family="Times,serif" font-size="14.00">new</text>
<text text-anchor="start" x="-182" y="-20.8" font-family="Times,serif" font-size="14.00">show</text>
<text text-anchor="start" x="-182" y="-5.8" font-family="Times,serif" font-size="14.00">update</text>
<polyline fill="none" stroke="black" points="-190,2 -86,2 "/>
<polyline fill="none" stroke="black" points="-190,26 -86,26 "/>
<text text-anchor="start" x="-182" y="41.2" font-family="Times,serif" font-size="14.00">_layout</text>
<text text-anchor="start" x="-182" y="56.2" font-family="Times,serif" font-size="14.00">check_edit</text>
<text text-anchor="start" x="-182" y="71.2" font-family="Times,serif" font-size="14.00">film_params</text>
<text text-anchor="start" x="-182" y="86.2" font-family="Times,serif" font-size="14.00">set_film</text>
</g>
<!-- SessionsController -->
<g id="node3" class="node"><title>SessionsController</title>
<path fill="none" stroke="black" d="M259.5,-19.5C259.5,-19.5 354.5,-19.5 354.5,-19.5 360.5,-19.5 366.5,-25.5 366.5,-31.5 366.5,-31.5 366.5,-130.5 366.5,-130.5 366.5,-136.5 360.5,-142.5 354.5,-142.5 354.5,-142.5 259.5,-142.5 259.5,-142.5 253.5,-142.5 247.5,-136.5 247.5,-130.5 247.5,-130.5 247.5,-31.5 247.5,-31.5 247.5,-25.5 253.5,-19.5 259.5,-19.5"/>
<text text-anchor="middle" x="307" y="-127.3" font-family="Times,serif" font-size="14.00">SessionsController</text>
<polyline fill="none" stroke="black" points="247.5,-119.5 366.5,-119.5 "/>
<text text-anchor="start" x="255.5" y="-104.3" font-family="Times,serif" font-size="14.00">create</text>
<text text-anchor="start" x="255.5" y="-89.3" font-family="Times,serif" font-size="14.00">destroy</text>
<text text-anchor="start" x="255.5" y="-74.3" font-family="Times,serif" font-size="14.00">new</text>
<polyline fill="none" stroke="black" points="247.5,-66.5 366.5,-66.5 "/>
<polyline fill="none" stroke="black" points="247.5,-42.5 366.5,-42.5 "/>
<text text-anchor="start" x="255.5" y="-27.3" font-family="Times,serif" font-size="14.00">_layout</text>
</g>
<!-- BooksController -->
<g id="node4" class="node"><title>BooksController</title>
<path fill="none" stroke="black" d="M202.5,-191C202.5,-191 285.5,-191 285.5,-191 291.5,-191 297.5,-197 297.5,-203 297.5,-203 297.5,-407 297.5,-407 297.5,-413 291.5,-419 285.5,-419 285.5,-419 202.5,-419 202.5,-419 196.5,-419 190.5,-413 190.5,-407 190.5,-407 190.5,-203 190.5,-203 190.5,-197 196.5,-191 202.5,-191"/>
<text text-anchor="middle" x="244" y="-403.8" font-family="Times,serif" font-size="14.00">BooksController</text>
<polyline fill="none" stroke="black" points="190.5,-396 297.5,-396 "/>
<text text-anchor="start" x="198.5" y="-380.8" font-family="Times,serif" font-size="14.00">create</text>
<text text-anchor="start" x="198.5" y="-365.8" font-family="Times,serif" font-size="14.00">destroy</text>
<text text-anchor="start" x="198.5" y="-350.8" font-family="Times,serif" font-size="14.00">edit</text>
<text text-anchor="start" x="198.5" y="-335.8" font-family="Times,serif" font-size="14.00">index</text>
<text text-anchor="start" x="198.5" y="-320.8" font-family="Times,serif" font-size="14.00">new</text>
<text text-anchor="start" x="198.5" y="-305.8" font-family="Times,serif" font-size="14.00">show</text>
<text text-anchor="start" x="198.5" y="-290.8" font-family="Times,serif" font-size="14.00">update</text>
<polyline fill="none" stroke="black" points="190.5,-283 297.5,-283 "/>
<polyline fill="none" stroke="black" points="190.5,-259 297.5,-259 "/>
<text text-anchor="start" x="198.5" y="-243.8" font-family="Times,serif" font-size="14.00">_layout</text>
<text text-anchor="start" x="198.5" y="-228.8" font-family="Times,serif" font-size="14.00">book_params</text>
<text text-anchor="start" x="198.5" y="-213.8" font-family="Times,serif" font-size="14.00">check_edit</text>
<text text-anchor="start" x="198.5" y="-198.8" font-family="Times,serif" font-size="14.00">set_book</text>
</g>
<!-- PeopleController -->
<g id="node5" class="node"><title>PeopleController</title>
<path fill="none" stroke="black" d="M259.5,246C259.5,246 344.5,246 344.5,246 350.5,246 356.5,240 356.5,234 356.5,234 356.5,30 356.5,30 356.5,24 350.5,18 344.5,18 344.5,18 259.5,18 259.5,18 253.5,18 247.5,24 247.5,30 247.5,30 247.5,234 247.5,234 247.5,240 253.5,246 259.5,246"/>
<text text-anchor="middle" x="302" y="33.2" font-family="Times,serif" font-size="14.00">PeopleController</text>
<polyline fill="none" stroke="black" points="247.5,41 356.5,41 "/>
<text text-anchor="start" x="255.5" y="56.2" font-family="Times,serif" font-size="14.00">create</text>
<text text-anchor="start" x="255.5" y="71.2" font-family="Times,serif" font-size="14.00">destroy</text>
<text text-anchor="start" x="255.5" y="86.2" font-family="Times,serif" font-size="14.00">edit</text>
<text text-anchor="start" x="255.5" y="101.2" font-family="Times,serif" font-size="14.00">index</text>
<text text-anchor="start" x="255.5" y="116.2" font-family="Times,serif" font-size="14.00">new</text>
<text text-anchor="start" x="255.5" y="131.2" font-family="Times,serif" font-size="14.00">show</text>
<text text-anchor="start" x="255.5" y="146.2" font-family="Times,serif" font-size="14.00">update</text>
<polyline fill="none" stroke="black" points="247.5,154 356.5,154 "/>
<polyline fill="none" stroke="black" points="247.5,178 356.5,178 "/>
<text text-anchor="start" x="255.5" y="193.2" font-family="Times,serif" font-size="14.00">_layout</text>
<text text-anchor="start" x="255.5" y="208.2" font-family="Times,serif" font-size="14.00">check_edit</text>
<text text-anchor="start" x="255.5" y="223.2" font-family="Times,serif" font-size="14.00">person_params</text>
<text text-anchor="start" x="255.5" y="238.2" font-family="Times,serif" font-size="14.00">set_person</text>
</g>
<!-- ApplicationController -->
<g id="node6" class="node"><title>ApplicationController</title>
<path fill="none" stroke="black" d="M-178,341.5C-178,341.5 -66,341.5 -66,341.5 -60,341.5 -54,335.5 -54,329.5 -54,329.5 -54,184.5 -54,184.5 -54,178.5 -60,172.5 -66,172.5 -66,172.5 -178,172.5 -178,172.5 -184,172.5 -190,178.5 -190,184.5 -190,184.5 -190,329.5 -190,329.5 -190,335.5 -184,341.5 -178,341.5"/>
<text text-anchor="middle" x="-122" y="187.7" font-family="Times,serif" font-size="14.00">ApplicationController</text>
<polyline fill="none" stroke="black" points="-190,195.5 -54,195.5 "/>
<polyline fill="none" stroke="black" points="-190,219.5 -54,219.5 "/>
<polyline fill="none" stroke="black" points="-190,243.5 -54,243.5 "/>
<text text-anchor="start" x="-182" y="258.7" font-family="Times,serif" font-size="14.00">_layout</text>
<text text-anchor="start" x="-182" y="273.7" font-family="Times,serif" font-size="14.00">authenticate_user</text>
<text text-anchor="start" x="-182" y="288.7" font-family="Times,serif" font-size="14.00">check_authentication</text>
<text text-anchor="start" x="-182" y="303.7" font-family="Times,serif" font-size="14.00">render_error</text>
<text text-anchor="start" x="-182" y="318.7" font-family="Times,serif" font-size="14.00">set_current_cart</text>
<text text-anchor="start" x="-182" y="333.7" font-family="Times,serif" font-size="14.00">set_current_user</text>
</g>
<!-- CartsController -->
<g id="node7" class="node"><title>CartsController</title>
<path fill="none" stroke="black" d="M-45,132C-45,132 33,132 33,132 39,132 45,126 45,120 45,120 45,-114 45,-114 45,-120 39,-126 33,-126 33,-126 -45,-126 -45,-126 -51,-126 -57,-120 -57,-114 -57,-114 -57,120 -57,120 -57,126 -51,132 -45,132"/>
<text text-anchor="middle" x="-6" y="-110.8" font-family="Times,serif" font-size="14.00">CartsController</text>
<polyline fill="none" stroke="black" points="-57,-103 45,-103 "/>
<text text-anchor="start" x="-49" y="-87.8" font-family="Times,serif" font-size="14.00">create</text>
<text text-anchor="start" x="-49" y="-72.8" font-family="Times,serif" font-size="14.00">destroy</text>
<text text-anchor="start" x="-49" y="-57.8" font-family="Times,serif" font-size="14.00">edit</text>
<text text-anchor="start" x="-49" y="-42.8" font-family="Times,serif" font-size="14.00">index</text>
<text text-anchor="start" x="-49" y="-27.8" font-family="Times,serif" font-size="14.00">new</text>
<text text-anchor="start" x="-49" y="-12.8" font-family="Times,serif" font-size="14.00">show</text>
<text text-anchor="start" x="-49" y="2.2" font-family="Times,serif" font-size="14.00">update</text>
<polyline fill="none" stroke="black" points="-57,10 45,10 "/>
<polyline fill="none" stroke="black" points="-57,34 45,34 "/>
<text text-anchor="start" x="-49" y="49.2" font-family="Times,serif" font-size="14.00">_layout</text>
<text text-anchor="start" x="-49" y="64.2" font-family="Times,serif" font-size="14.00">cart_params</text>
<text text-anchor="start" x="-49" y="79.2" font-family="Times,serif" font-size="14.00">check_edit</text>
<text text-anchor="start" x="-49" y="94.2" font-family="Times,serif" font-size="14.00">check_edit_cart</text>
<text text-anchor="start" x="-49" y="109.2" font-family="Times,serif" font-size="14.00">invalid_cart</text>
<text text-anchor="start" x="-49" y="124.2" font-family="Times,serif" font-size="14.00">set_cart</text>
</g>
<!-- LineItemsController -->
<g id="node8" class="node"><title>LineItemsController</title>
<path fill="none" stroke="black" d="M88,75C88,75 192,75 192,75 198,75 204,69 204,63 204,63 204,-141 204,-141 204,-147 198,-153 192,-153 192,-153 88,-153 88,-153 82,-153 76,-147 76,-141 76,-141 76,63 76,63 76,69 82,75 88,75"/>
<text text-anchor="middle" x="140" y="-137.8" font-family="Times,serif" font-size="14.00">LineItemsController</text>
<polyline fill="none" stroke="black" points="76,-130 204,-130 "/>
<text text-anchor="start" x="84" y="-114.8" font-family="Times,serif" font-size="14.00">create</text>
<text text-anchor="start" x="84" y="-99.8" font-family="Times,serif" font-size="14.00">destroy</text>
<text text-anchor="start" x="84" y="-84.8" font-family="Times,serif" font-size="14.00">edit</text>
<text text-anchor="start" x="84" y="-69.8" font-family="Times,serif" font-size="14.00">index</text>
<text text-anchor="start" x="84" y="-54.8" font-family="Times,serif" font-size="14.00">new</text>
<text text-anchor="start" x="84" y="-39.8" font-family="Times,serif" font-size="14.00">show</text>
<text text-anchor="start" x="84" y="-24.8" font-family="Times,serif" font-size="14.00">update</text>
<polyline fill="none" stroke="black" points="76,-17 204,-17 "/>
<polyline fill="none" stroke="black" points="76,7 204,7 "/>
<text text-anchor="start" x="84" y="22.2" font-family="Times,serif" font-size="14.00">_layout</text>
<text text-anchor="start" x="84" y="37.2" font-family="Times,serif" font-size="14.00">check_edit</text>
<text text-anchor="start" x="84" y="52.2" font-family="Times,serif" font-size="14.00">line_item_params</text>
<text text-anchor="start" x="84" y="67.2" font-family="Times,serif" font-size="14.00">set_line_item</text>
</g>
<!-- GenresController -->
<g id="node9" class="node"><title>GenresController</title>
<path fill="none" stroke="black" d="M-235,-248C-235,-248 -149,-248 -149,-248 -143,-248 -137,-254 -137,-260 -137,-260 -137,-464 -137,-464 -137,-470 -143,-476 -149,-476 -149,-476 -235,-476 -235,-476 -241,-476 -247,-470 -247,-464 -247,-464 -247,-260 -247,-260 -247,-254 -241,-248 -235,-248"/>
<text text-anchor="middle" x="-192" y="-460.8" font-family="Times,serif" font-size="14.00">GenresController</text>
<polyline fill="none" stroke="black" points="-247,-453 -137,-453 "/>
<text text-anchor="start" x="-239" y="-437.8" font-family="Times,serif" font-size="14.00">create</text>
<text text-anchor="start" x="-239" y="-422.8" font-family="Times,serif" font-size="14.00">destroy</text>
<text text-anchor="start" x="-239" y="-407.8" font-family="Times,serif" font-size="14.00">edit</text>
<text text-anchor="start" x="-239" y="-392.8" font-family="Times,serif" font-size="14.00">index</text>
<text text-anchor="start" x="-239" y="-377.8" font-family="Times,serif" font-size="14.00">new</text>
<text text-anchor="start" x="-239" y="-362.8" font-family="Times,serif" font-size="14.00">show</text>
<text text-anchor="start" x="-239" y="-347.8" font-family="Times,serif" font-size="14.00">update</text>
<polyline fill="none" stroke="black" points="-247,-340 -137,-340 "/>
<polyline fill="none" stroke="black" points="-247,-316 -137,-316 "/>
<text text-anchor="start" x="-239" y="-300.8" font-family="Times,serif" font-size="14.00">_layout</text>
<text text-anchor="start" x="-239" y="-285.8" font-family="Times,serif" font-size="14.00">check_edit</text>
<text text-anchor="start" x="-239" y="-270.8" font-family="Times,serif" font-size="14.00">genre_params</text>
<text text-anchor="start" x="-239" y="-255.8" font-family="Times,serif" font-size="14.00">set_genre</text>
</g>
<!-- OrdersController -->
<g id="node10" class="node"><title>OrdersController</title>
<path fill="none" stroke="black" d="M-329.5,18C-329.5,18 -244.5,18 -244.5,18 -238.5,18 -232.5,12 -232.5,6 -232.5,6 -232.5,-198 -232.5,-198 -232.5,-204 -238.5,-210 -244.5,-210 -244.5,-210 -329.5,-210 -329.5,-210 -335.5,-210 -341.5,-204 -341.5,-198 -341.5,-198 -341.5,6 -341.5,6 -341.5,12 -335.5,18 -329.5,18"/>
<text text-anchor="middle" x="-287" y="-194.8" font-family="Times,serif" font-size="14.00">OrdersController</text>
<polyline fill="none" stroke="black" points="-341.5,-187 -232.5,-187 "/>
<text text-anchor="start" x="-333.5" y="-171.8" font-family="Times,serif" font-size="14.00">create</text>
<text text-anchor="start" x="-333.5" y="-156.8" font-family="Times,serif" font-size="14.00">destroy</text>
<text text-anchor="start" x="-333.5" y="-141.8" font-family="Times,serif" font-size="14.00">edit</text>
<text text-anchor="start" x="-333.5" y="-126.8" font-family="Times,serif" font-size="14.00">index</text>
<text text-anchor="start" x="-333.5" y="-111.8" font-family="Times,serif" font-size="14.00">new</text>
<text text-anchor="start" x="-333.5" y="-96.8" font-family="Times,serif" font-size="14.00">show</text>
<text text-anchor="start" x="-333.5" y="-81.8" font-family="Times,serif" font-size="14.00">update</text>
<polyline fill="none" stroke="black" points="-341.5,-74 -232.5,-74 "/>
<polyline fill="none" stroke="black" points="-341.5,-50 -232.5,-50 "/>
<text text-anchor="start" x="-333.5" y="-34.8" font-family="Times,serif" font-size="14.00">_layout</text>
<text text-anchor="start" x="-333.5" y="-19.8" font-family="Times,serif" font-size="14.00">check_edit</text>
<text text-anchor="start" x="-333.5" y="-4.8" font-family="Times,serif" font-size="14.00">order_params</text>
<text text-anchor="start" x="-333.5" y="10.2" font-family="Times,serif" font-size="14.00">set_order</text>
</g>
<!-- CountriesController -->
<g id="node11" class="node"><title>CountriesController</title>
<path fill="none" stroke="black" d="M-82.5,-172C-82.5,-172 18.5,-172 18.5,-172 24.5,-172 30.5,-178 30.5,-184 30.5,-184 30.5,-388 30.5,-388 30.5,-394 24.5,-400 18.5,-400 18.5,-400 -82.5,-400 -82.5,-400 -88.5,-400 -94.5,-394 -94.5,-388 -94.5,-388 -94.5,-184 -94.5,-184 -94.5,-178 -88.5,-172 -82.5,-172"/>
<text text-anchor="middle" x="-32" y="-384.8" font-family="Times,serif" font-size="14.00">CountriesController</text>
<polyline fill="none" stroke="black" points="-94.5,-377 30.5,-377 "/>
<text text-anchor="start" x="-86.5" y="-361.8" font-family="Times,serif" font-size="14.00">create</text>
<text text-anchor="start" x="-86.5" y="-346.8" font-family="Times,serif" font-size="14.00">destroy</text>
<text text-anchor="start" x="-86.5" y="-331.8" font-family="Times,serif" font-size="14.00">edit</text>
<text text-anchor="start" x="-86.5" y="-316.8" font-family="Times,serif" font-size="14.00">index</text>
<text text-anchor="start" x="-86.5" y="-301.8" font-family="Times,serif" font-size="14.00">new</text>
<text text-anchor="start" x="-86.5" y="-286.8" font-family="Times,serif" font-size="14.00">show</text>
<text text-anchor="start" x="-86.5" y="-271.8" font-family="Times,serif" font-size="14.00">update</text>
<polyline fill="none" stroke="black" points="-94.5,-264 30.5,-264 "/>
<polyline fill="none" stroke="black" points="-94.5,-240 30.5,-240 "/>
<text text-anchor="start" x="-86.5" y="-224.8" font-family="Times,serif" font-size="14.00">_layout</text>
<text text-anchor="start" x="-86.5" y="-209.8" font-family="Times,serif" font-size="14.00">check_edit</text>
<text text-anchor="start" x="-86.5" y="-194.8" font-family="Times,serif" font-size="14.00">country_params</text>
<text text-anchor="start" x="-86.5" y="-179.8" font-family="Times,serif" font-size="14.00">set_country</text>
</g>
<!-- UsersController -->
<g id="node12" class="node"><title>UsersController</title>
<path fill="none" stroke="black" d="M-310.5,284C-310.5,284 -231.5,284 -231.5,284 -225.5,284 -219.5,278 -219.5,272 -219.5,272 -219.5,68 -219.5,68 -219.5,62 -225.5,56 -231.5,56 -231.5,56 -310.5,56 -310.5,56 -316.5,56 -322.5,62 -322.5,68 -322.5,68 -322.5,272 -322.5,272 -322.5,278 -316.5,284 -310.5,284"/>
<text text-anchor="middle" x="-271" y="71.2" font-family="Times,serif" font-size="14.00">UsersController</text>
<polyline fill="none" stroke="black" points="-322.5,79 -219.5,79 "/>
<text text-anchor="start" x="-314.5" y="94.2" font-family="Times,serif" font-size="14.00">create</text>
<text text-anchor="start" x="-314.5" y="109.2" font-family="Times,serif" font-size="14.00">destroy</text>
<text text-anchor="start" x="-314.5" y="124.2" font-family="Times,serif" font-size="14.00">edit</text>
<text text-anchor="start" x="-314.5" y="139.2" font-family="Times,serif" font-size="14.00">index</text>
<text text-anchor="start" x="-314.5" y="154.2" font-family="Times,serif" font-size="14.00">new</text>
<text text-anchor="start" x="-314.5" y="169.2" font-family="Times,serif" font-size="14.00">show</text>
<text text-anchor="start" x="-314.5" y="184.2" font-family="Times,serif" font-size="14.00">update</text>
<polyline fill="none" stroke="black" points="-322.5,192 -219.5,192 "/>
<polyline fill="none" stroke="black" points="-322.5,216 -219.5,216 "/>
<text text-anchor="start" x="-314.5" y="231.2" font-family="Times,serif" font-size="14.00">_layout</text>
<text text-anchor="start" x="-314.5" y="246.2" font-family="Times,serif" font-size="14.00">check_edit</text>
<text text-anchor="start" x="-314.5" y="261.2" font-family="Times,serif" font-size="14.00">set_user</text>
<text text-anchor="start" x="-314.5" y="276.2" font-family="Times,serif" font-size="14.00">user_params</text>
</g>
</g>
</svg>
