<?xml version="1.0" encoding="UTF-8" standalone="no"?>
<!DOCTYPE svg PUBLIC "-//W3C//DTD SVG 1.1//EN"
 "http://www.w3.org/Graphics/SVG/1.1/DTD/svg11.dtd">
<!-- Generated by graphviz version 2.38.0 (20140413.2041)
 -->
<!-- Title: controllers_diagram Pages: 1 -->
<svg width="717pt" height="770pt"
 viewBox="0.00 0.00 716.50 769.50" xmlns="http://www.w3.org/2000/svg" xmlns:xlink="http://www.w3.org/1999/xlink">
<g id="graph0" class="graph" transform="scale(1 1) rotate(0) translate(346 461.5)">
<title>controllers_diagram</title>
<polygon fill="none" stroke="none" points="-346,308 -346,-461.5 370.5,-461.5 370.5,308 -346,308"/>
<!-- _diagram_info -->
<g id="node1" class="node"><title>_diagram_info</title>
<text text-anchor="start" x="8" y="183.4" font-family="Times,serif" font-size="13.00">Controllers diagram</text>
<text text-anchor="start" x="8" y="197.4" font-family="Times,serif" font-size="13.00">Date: May 04 2016 &#45; 23:25</text>
<text text-anchor="start" x="8" y="211.4" font-family="Times,serif" font-size="13.00">Migration version: 20160504120454</text>
<text text-anchor="start" x="8" y="225.4" font-family="Times,serif" font-size="13.00">Generated by RailRoady 1.4.2</text>
<text text-anchor="start" x="8" y="239.4" font-family="Times,serif" font-size="13.00">http://railroady.prestonlee.com</text>
</g>
<!-- FilmsController -->
<g id="node2" class="node"><title>FilmsController</title>
<path fill="none" stroke="black" d="M-178,94C-178,94 -98,94 -98,94 -92,94 -86,88 -86,82 -86,82 -86,-122 -86,-122 -86,-128 -92,-134 -98,-134 -98,-134 -178,-134 -178,-134 -184,-134 -190,-128 -190,-122 -190,-122 -190,82 -190,82 -190,88 -184,94 -178,94"/>
<text text-anchor="middle" x="-138" y="-118.8" font-family="Times,serif" font-size="14.00">FilmsController</text>
<polyline fill="none" stroke="black" points="-190,-111 -86,-111 "/>
<text text-anchor="start" x="-182" y="-95.8" font-family="Times,serif" font-size="14.00">create</text>
<text text-anchor="start" x="-182" y="-80.8" font-family="Times,serif" font-size="14.00">destroy</text>
<text text-anchor="start" x="-182" y="-65.8" font-family="Times,serif" font-size="14.00">edit</text>
<text text-anchor="start" x="-182" y="-50.8" font-family="Times,serif" font-size="14.00">index</text>
<text text-anchor="start" x="-182" y="-35.8" font-family="Times,serif" font-size="14.00">new</text>
<text text-anchor="start" x="-182" y="-20.8" font-family="Times,serif" font-size="14.00">show</text>
<text text-anchor="start" x="-182" y="-5.8" font-family="Times,serif" font-size="14.00">update</text>
<polyline fill="none" stroke="black" points="-190,2 -86,2 "/>
<polyline fill="none" stroke="black" points="-190,26 -86,26 "/>
<text text-anchor="start" x="-182" y="41.2" font-family="Times,serif" font-size="14.00">_layout</text>
<text text-anchor="start" x="-182" y="56.2" font-family="Times,serif" font-size="14.00">check_edit</text>
<text text-anchor="start" x="-182" y="71.2" font-family="Times,serif" font-size="14.00">film_params</text>
<text text-anchor="start" x="-182" y="86.2" font-family="Times,serif" font-size="14.00">set_film</text>
</g>
<!-- SessionsController -->
<g id="node3" class="node"><title>SessionsController</title>
<path fill="none" stroke="black" d="M259.5,-19.5C259.5,-19.5 354.5,-19.5 354.5,-19.5 360.5,-19.5 366.5,-25.5 366.5,-31.5 366.5,-31.5 366.5,-130.5 366.5,-130.5 366.5,-136.5 360.5,-142.5 354.5,-142.5 354.5,-142.5 259.5,-142.5 259.5,-142.5 253.5,-142.5 247.5,-136.5 247.5,-130.5 247.5,-130.5 247.5,-31.5 247.5,-31.5 247.5,-25.5 253.5,-19.5 259.5,-19.5"/>
<text text-anchor="middle" x="307" y="-127.3" font-family="Times,serif" font-size="14.00">SessionsController</text>
<polyline fill="none" stroke="black" points="247.5,-119.5 366.5,-119.5 "/>
<text text-anchor="start" x="255.5" y="-104.3" font-family="Times,serif" font-size="14.00">create</text>
<text text-anchor="start" x="255.5" y="-89.3" font-family="Times,serif" font-size="14.00">destroy</text>
<text text-anchor="start" x="255.5" y="-74.3" font-family="Times,serif" font-size="14.00">new</text>
<polyline fill="none" stroke="black" points="247.5,-66.5 366.5,-66.5 "/>
<polyline fill="none" stroke="black" points="247.5,-42.5 366.5,-42.5 "/>
<text text-anchor="start" x="255.5" y="-27.3" font-family="Times,serif" font-size="14.00">_layout</text>
</g>
<!-- BooksController -->
<g id="node4" class="node"><title>BooksController</title>
<path fill="none" stroke="black" d="M-215.5,-229C-215.5,-229 -132.5,-229 -132.5,-229 -126.5,-229 -120.5,-235 -120.5,-241 -120.5,-241 -120.5,-445 -120.5,-445 -120.5,-451 -126.5,-457 -132.5,-457 -132.5,-457 -215.5,-457 -215.5,-457 -221.5,-457 -227.5,-451 -227.5,-445 -227.5,-445 -227.5,-241 -227.5,-241 -227.5,-235 -221.5,-229 -215.5,-229"/>
<text text-anchor="middle" x="-174" y="-441.8" font-family="Times,serif" font-size="14.00">BooksController</text>
<polyline fill="none" stroke="black" points="-227.5,-434 -120.5,-434 "/>
<text text-anchor="start" x="-219.5" y="-418.8" font-family="Times,serif" font-size="14.00">create</text>
<text text-anchor="start" x="-219.5" y="-403.8" font-family="Times,serif" font-size="14.00">destroy</text>
<text text-anchor="start" x="-219.5" y="-388.8" font-family="Times,serif" font-size="14.00">edit</text>
<text text-anchor="start" x="-219.5" y="-373.8" font-family="Times,serif" font-size="14.00">index</text>
<text text-anchor="start" x="-219.5" y="-358.8" font-family="Times,serif" font-size="14.00">new</text>
<text text-anchor="start" x="-219.5" y="-343.8" font-family="Times,serif" font-size="14.00">show</text>
<text text-anchor="start" x="-219.5" y="-328.8" font-family="Times,serif" font-size="14.00">update</text>
<polyline fill="none" stroke="black" points="-227.5,-321 -120.5,-321 "/>
<polyline fill="none" stroke="black" points="-227.5,-297 -120.5,-297 "/>
<text text-anchor="start" x="-219.5" y="-281.8" font-family="Times,serif" font-size="14.00">_layout</text>
<text text-anchor="start" x="-219.5" y="-266.8" font-family="Times,serif" font-size="14.00">book_params</text>
<text text-anchor="start" x="-219.5" y="-251.8" font-family="Times,serif" font-size="14.00">check_edit</text>
<text text-anchor="start" x="-219.5" y="-236.8" font-family="Times,serif" font-size="14.00">set_book</text>
</g>
<!-- PeopleController -->
<g id="node5" class="node"><title>PeopleController</title>
<path fill="none" stroke="black" d="M259.5,246C259.5,246 344.5,246 344.5,246 350.5,246 356.5,240 356.5,234 356.5,234 356.5,30 356.5,30 356.5,24 350.5,18 344.5,18 344.5,18 259.5,18 259.5,18 253.5,18 247.5,24 247.5,30 247.5,30 247.5,234 247.5,234 247.5,240 253.5,246 259.5,246"/>
<text text-anchor="middle" x="302" y="33.2" font-family="Times,serif" font-size="14.00">PeopleController</text>
<polyline fill="none" stroke="black" points="247.5,41 356.5,41 "/>
<text text-anchor="start" x="255.5" y="56.2" font-family="Times,serif" font-size="14.00">create</text>
<text text-anchor="start" x="255.5" y="71.2" font-family="Times,serif" font-size="14.00">destroy</text>
<text text-anchor="start" x="255.5" y="86.2" font-family="Times,serif" font-size="14.00">edit</text>
<text text-anchor="start" x="255.5" y="101.2" font-family="Times,serif" font-size="14.00">index</text>
<text text-anchor="start" x="255.5" y="116.2" font-family="Times,serif" font-size="14.00">new</text>
<text text-anchor="start" x="255.5" y="131.2" font-family="Times,serif" font-size="14.00">show</text>
<text text-anchor="start" x="255.5" y="146.2" font-family="Times,serif" font-size="14.00">update</text>
<polyline fill="none" stroke="black" points="247.5,154 356.5,154 "/>
<polyline fill="none" stroke="black" points="247.5,178 356.5,178 "/>
<text text-anchor="start" x="255.5" y="193.2" font-family="Times,serif" font-size="14.00">_layout</text>
<text text-anchor="start" x="255.5" y="208.2" font-family="Times,serif" font-size="14.00">check_edit</text>
<text text-anchor="start" x="255.5" y="223.2" font-family="Times,serif" font-size="14.00">person_params</text>
<text text-anchor="start" x="255.5" y="238.2" font-family="Times,serif" font-size="14.00">set_person</text>
</g>
<!-- ApplicationController -->
<g id="node6" class="node"><title>ApplicationController</title>
<path fill="none" stroke="black" d="M-292,303.5C-292,303.5 -180,303.5 -180,303.5 -174,303.5 -168,297.5 -168,291.5 -168,291.5 -168,146.5 -168,146.5 -168,140.5 -174,134.5 -180,134.5 -180,134.5 -292,134.5 -292,134.5 -298,134.5 -304,140.5 -304,146.5 -304,146.5 -304,291.5 -304,291.5 -304,297.5 -298,303.5 -292,303.5"/>
<text text-anchor="middle" x="-236" y="149.7" font-family="Times,serif" font-size="14.00">ApplicationController</text>
<polyline fill="none" stroke="black" points="-304,157.5 -168,157.5 "/>
<polyline fill="none" stroke="black" points="-304,181.5 -168,181.5 "/>
<polyline fill="none" stroke="black" points="-304,205.5 -168,205.5 "/>
<text text-anchor="start" x="-296" y="220.7" font-family="Times,serif" font-size="14.00">_layout</text>
<text text-anchor="start" x="-296" y="235.7" font-family="Times,serif" font-size="14.00">authenticate_user</text>
<text text-anchor="start" x="-296" y="250.7" font-family="Times,serif" font-size="14.00">check_authentication</text>
<text text-anchor="start" x="-296" y="265.7" font-family="Times,serif" font-size="14.00">render_error</text>
<text text-anchor="start" x="-296" y="280.7" font-family="Times,serif" font-size="14.00">set_current_cart</text>
<text text-anchor="start" x="-296" y="295.7" font-family="Times,serif" font-size="14.00">set_current_user</text>
</g>
<!-- CartsController -->
<g id="node7" class="node"><title>CartsController</title>
<path fill="none" stroke="black" d="M-45,132C-45,132 33,132 33,132 39,132 45,126 45,120 45,120 45,-114 45,-114 45,-120 39,-126 33,-126 33,-126 -45,-126 -45,-126 -51,-126 -57,-120 -57,-114 -57,-114 -57,120 -57,120 -57,126 -51,132 -45,132"/>
<text text-anchor="middle" x="-6" y="-110.8" font-family="Times,serif" font-size="14.00">CartsController</text>
<polyline fill="none" stroke="black" points="-57,-103 45,-103 "/>
<text text-anchor="start" x="-49" y="-87.8" font-family="Times,serif" font-size="14.00">create</text>
<text text-anchor="start" x="-49" y="-72.8" font-family="Times,serif" font-size="14.00">destroy</text>
<text text-anchor="start" x="-49" y="-57.8" font-family="Times,serif" font-size="14.00">edit</text>
<text text-anchor="start" x="-49" y="-42.8" font-family="Times,serif" font-size="14.00">index</text>
<text text-anchor="start" x="-49" y="-27.8" font-family="Times,serif" font-size="14.00">new</text>
<text text-anchor="start" x="-49" y="-12.8" font-family="Times,serif" font-size="14.00">show</text>
<text text-anchor="start" x="-49" y="2.2" font-family="Times,serif" font-size="14.00">update</text>
<polyline fill="none" stroke="black" points="-57,10 45,10 "/>
<polyline fill="none" stroke="black" points="-57,34 45,34 "/>
<text text-anchor="start" x="-49" y="49.2" font-family="Times,serif" font-size="14.00">_layout</text>
<text text-anchor="start" x="-49" y="64.2" font-family="Times,serif" font-size="14.00">cart_params</text>
<text text-anchor="start" x="-49" y="79.2" font-family="Times,serif" font-size="14.00">check_edit</text>
<text text-anchor="start" x="-49" y="94.2" font-family="Times,serif" font-size="14.00">check_edit_cart</text>
<text text-anchor="start" x="-49" y="109.2" font-family="Times,serif" font-size="14.00">invalid_cart</text>
<text text-anchor="start" x="-49" y="124.2" font-family="Times,serif" font-size="14.00">set_cart</text>
</g>
<!-- LineItemsController -->
<g id="node8" class="node"><title>LineItemsController</title>
<path fill="none" stroke="black" d="M88,75.5C88,75.5 192,75.5 192,75.5 198,75.5 204,69.5 204,63.5 204,63.5 204,-155.5 204,-155.5 204,-161.5 198,-167.5 192,-167.5 192,-167.5 88,-167.5 88,-167.5 82,-167.5 76,-161.5 76,-155.5 76,-155.5 76,63.5 76,63.5 76,69.5 82,75.5 88,75.5"/>
<text text-anchor="middle" x="140" y="-152.3" font-family="Times,serif" font-size="14.00">LineItemsController</text>
<polyline fill="none" stroke="black" points="76,-144.5 204,-144.5 "/>
<text text-anchor="start" x="84" y="-129.3" font-family="Times,serif" font-size="14.00">create</text>
<text text-anchor="start" x="84" y="-114.3" font-family="Times,serif" font-size="14.00">destroy</text>
<text text-anchor="start" x="84" y="-99.3" font-family="Times,serif" font-size="14.00">edit</text>
<text text-anchor="start" x="84" y="-84.3" font-family="Times,serif" font-size="14.00">index</text>
<text text-anchor="start" x="84" y="-69.3" font-family="Times,serif" font-size="14.00">new</text>
<text text-anchor="start" x="84" y="-54.3" font-family="Times,serif" font-size="14.00">show</text>
<text text-anchor="start" x="84" y="-39.3" font-family="Times,serif" font-size="14.00">update</text>
<polyline fill="none" stroke="black" points="76,-31.5 204,-31.5 "/>
<polyline fill="none" stroke="black" points="76,-7.5 204,-7.5 "/>
<text text-anchor="start" x="84" y="7.7" font-family="Times,serif" font-size="14.00">_layout</text>
<text text-anchor="start" x="84" y="22.7" font-family="Times,serif" font-size="14.00">check_edit</text>
<text text-anchor="start" x="84" y="37.7" font-family="Times,serif" font-size="14.00">invalid_line_item</text>
<text text-anchor="start" x="84" y="52.7" font-family="Times,serif" font-size="14.00">line_item_params</text>
<text text-anchor="start" x="84" y="67.7" font-family="Times,serif" font-size="14.00">set_line_item</text>
</g>
<!-- GenresController -->
<g id="node9" class="node"><title>GenresController</title>
<path fill="none" stroke="black" d="M-330,37C-330,37 -244,37 -244,37 -238,37 -232,31 -232,25 -232,25 -232,-179 -232,-179 -232,-185 -238,-191 -244,-191 -244,-191 -330,-191 -330,-191 -336,-191 -342,-185 -342,-179 -342,-179 -342,25 -342,25 -342,31 -336,37 -330,37"/>
<text text-anchor="middle" x="-287" y="-175.8" font-family="Times,serif" font-size="14.00">GenresController</text>
<polyline fill="none" stroke="black" points="-342,-168 -232,-168 "/>
<text text-anchor="start" x="-334" y="-152.8" font-family="Times,serif" font-size="14.00">create</text>
<text text-anchor="start" x="-334" y="-137.8" font-family="Times,serif" font-size="14.00">destroy</text>
<text text-anchor="start" x="-334" y="-122.8" font-family="Times,serif" font-size="14.00">edit</text>
<text text-anchor="start" x="-334" y="-107.8" font-family="Times,serif" font-size="14.00">index</text>
<text text-anchor="start" x="-334" y="-92.8" font-family="Times,serif" font-size="14.00">new</text>
<text text-anchor="start" x="-334" y="-77.8" font-family="Times,serif" font-size="14.00">show</text>
<text text-anchor="start" x="-334" y="-62.8" font-family="Times,serif" font-size="14.00">update</text>
<polyline fill="none" stroke="black" points="-342,-55 -232,-55 "/>
<polyline fill="none" stroke="black" points="-342,-31 -232,-31 "/>
<text text-anchor="start" x="-334" y="-15.8" font-family="Times,serif" font-size="14.00">_layout</text>
<text text-anchor="start" x="-334" y="-0.8" font-family="Times,serif" font-size="14.00">check_edit</text>
<text text-anchor="start" x="-334" y="14.2" font-family="Times,serif" font-size="14.00">genre_params</text>
<text text-anchor="start" x="-334" y="29.2" font-family="Times,serif" font-size="14.00">set_genre</text>
</g>
<!-- OrdersController -->
<g id="node10" class="node"><title>OrdersController</title>
<path fill="none" stroke="black" d="M-64,-172C-64,-172 22,-172 22,-172 28,-172 34,-178 34,-184 34,-184 34,-418 34,-418 34,-424 28,-430 22,-430 22,-430 -64,-430 -64,-430 -70,-430 -76,-424 -76,-418 -76,-418 -76,-184 -76,-184 -76,-178 -70,-172 -64,-172"/>
<text text-anchor="middle" x="-21" y="-414.8" font-family="Times,serif" font-size="14.00">OrdersController</text>
<polyline fill="none" stroke="black" points="-76,-407 34,-407 "/>
<text text-anchor="start" x="-68" y="-391.8" font-family="Times,serif" font-size="14.00">create</text>
<text text-anchor="start" x="-68" y="-376.8" font-family="Times,serif" font-size="14.00">destroy</text>
<text text-anchor="start" x="-68" y="-361.8" font-family="Times,serif" font-size="14.00">edit</text>
<text text-anchor="start" x="-68" y="-346.8" font-family="Times,serif" font-size="14.00">index</text>
<text text-anchor="start" x="-68" y="-331.8" font-family="Times,serif" font-size="14.00">new</text>
<text text-anchor="start" x="-68" y="-316.8" font-family="Times,serif" font-size="14.00">show</text>
<text text-anchor="start" x="-68" y="-301.8" font-family="Times,serif" font-size="14.00">update</text>
<polyline fill="none" stroke="black" points="-76,-294 34,-294 "/>
<polyline fill="none" stroke="black" points="-76,-270 34,-270 "/>
<text text-anchor="start" x="-68" y="-254.8" font-family="Times,serif" font-size="14.00">_layout</text>
<text text-anchor="start" x="-68" y="-239.8" font-family="Times,serif" font-size="14.00">check_edit</text>
<text text-anchor="start" x="-68" y="-224.8" font-family="Times,serif" font-size="14.00">check_edit_order</text>
<text text-anchor="start" x="-68" y="-209.8" font-family="Times,serif" font-size="14.00">invalid_order</text>
<text text-anchor="start" x="-68" y="-194.8" font-family="Times,serif" font-size="14.00">order_params</text>
<text text-anchor="start" x="-68" y="-179.8" font-family="Times,serif" font-size="14.00">set_order</text>
</g>
<!-- CountriesController -->
<g id="node11" class="node"><title>CountriesController</title>
<path fill="none" stroke="black" d="M221.5,-210C221.5,-210 322.5,-210 322.5,-210 328.5,-210 334.5,-216 334.5,-222 334.5,-222 334.5,-426 334.5,-426 334.5,-432 328.5,-438 322.5,-438 322.5,-438 221.5,-438 221.5,-438 215.5,-438 209.5,-432 209.5,-426 209.5,-426 209.5,-222 209.5,-222 209.5,-216 215.5,-210 221.5,-210"/>
<text text-anchor="middle" x="272" y="-422.8" font-family="Times,serif" font-size="14.00">CountriesController</text>
<polyline fill="none" stroke="black" points="209.5,-415 334.5,-415 "/>
<text text-anchor="start" x="217.5" y="-399.8" font-family="Times,serif" font-size="14.00">create</text>
<text text-anchor="start" x="217.5" y="-384.8" font-family="Times,serif" font-size="14.00">destroy</text>
<text text-anchor="start" x="217.5" y="-369.8" font-family="Times,serif" font-size="14.00">edit</text>
<text text-anchor="start" x="217.5" y="-354.8" font-family="Times,serif" font-size="14.00">index</text>
<text text-anchor="start" x="217.5" y="-339.8" font-family="Times,serif" font-size="14.00">new</text>
<text text-anchor="start" x="217.5" y="-324.8" font-family="Times,serif" font-size="14.00">show</text>
<text text-anchor="start" x="217.5" y="-309.8" font-family="Times,serif" font-size="14.00">update</text>
<polyline fill="none" stroke="black" points="209.5,-302 334.5,-302 "/>
<polyline fill="none" stroke="black" points="209.5,-278 334.5,-278 "/>
<text text-anchor="start" x="217.5" y="-262.8" font-family="Times,serif" font-size="14.00">_layout</text>
<text text-anchor="start" x="217.5" y="-247.8" font-family="Times,serif" font-size="14.00">check_edit</text>
<text text-anchor="start" x="217.5" y="-232.8" font-family="Times,serif" font-size="14.00">country_params</text>
<text text-anchor="start" x="217.5" y="-217.8" font-family="Times,serif" font-size="14.00">set_country</text>
</g>
<!-- UsersController -->
<g id="node12" class="node"><title>UsersController</title>
<path fill="none" stroke="black" d="M88.5,-210C88.5,-210 167.5,-210 167.5,-210 173.5,-210 179.5,-216 179.5,-222 179.5,-222 179.5,-426 179.5,-426 179.5,-432 173.5,-438 167.5,-438 167.5,-438 88.5,-438 88.5,-438 82.5,-438 76.5,-432 76.5,-426 76.5,-426 76.5,-222 76.5,-222 76.5,-216 82.5,-210 88.5,-210"/>
<text text-anchor="middle" x="128" y="-422.8" font-family="Times,serif" font-size="14.00">UsersController</text>
<polyline fill="none" stroke="black" points="76.5,-415 179.5,-415 "/>
<text text-anchor="start" x="84.5" y="-399.8" font-family="Times,serif" font-size="14.00">create</text>
<text text-anchor="start" x="84.5" y="-384.8" font-family="Times,serif" font-size="14.00">destroy</text>
<text text-anchor="start" x="84.5" y="-369.8" font-family="Times,serif" font-size="14.00">edit</text>
<text text-anchor="start" x="84.5" y="-354.8" font-family="Times,serif" font-size="14.00">index</text>
<text text-anchor="start" x="84.5" y="-339.8" font-family="Times,serif" font-size="14.00">new</text>
<text text-anchor="start" x="84.5" y="-324.8" font-family="Times,serif" font-size="14.00">show</text>
<text text-anchor="start" x="84.5" y="-309.8" font-family="Times,serif" font-size="14.00">update</text>
<polyline fill="none" stroke="black" points="76.5,-302 179.5,-302 "/>
<polyline fill="none" stroke="black" points="76.5,-278 179.5,-278 "/>
<text text-anchor="start" x="84.5" y="-262.8" font-family="Times,serif" font-size="14.00">_layout</text>
<text text-anchor="start" x="84.5" y="-247.8" font-family="Times,serif" font-size="14.00">check_edit</text>
<text text-anchor="start" x="84.5" y="-232.8" font-family="Times,serif" font-size="14.00">set_user</text>
<text text-anchor="start" x="84.5" y="-217.8" font-family="Times,serif" font-size="14.00">user_params</text>
</g>
</g>
</svg>
