<?xml version="1.0" encoding="UTF-8" standalone="no"?>
<!DOCTYPE svg PUBLIC "-//W3C//DTD SVG 1.1//EN"
 "http://www.w3.org/Graphics/SVG/1.1/DTD/svg11.dtd">
<!-- Generated by graphviz version 2.38.0 (20140413.2041)
 -->
<!-- Title: models_diagram Pages: 1 -->
<svg width="895pt" height="1102pt"
 viewBox="0.00 0.00 894.50 1102.00" xmlns="http://www.w3.org/2000/svg" xmlns:xlink="http://www.w3.org/1999/xlink">
<g id="graph0" class="graph" transform="scale(1 1) rotate(0) translate(4 1098)">
<title>models_diagram</title>
<polygon fill="none" stroke="none" points="-4,4 -4,-1098 890.5,-1098 890.5,4 -4,4"/>
<!-- _diagram_info -->
<g id="node1" class="node"><title>_diagram_info</title>
<text text-anchor="start" x="8" y="-1027.6" font-family="Times,serif" font-size="13.00">Models diagram</text>
<text text-anchor="start" x="8" y="-1013.6" font-family="Times,serif" font-size="13.00">Date: May 04 2016 &#45; 23:25</text>
<text text-anchor="start" x="8" y="-999.6" font-family="Times,serif" font-size="13.00">Migration version: 20160504120454</text>
<text text-anchor="start" x="8" y="-985.6" font-family="Times,serif" font-size="13.00">Generated by RailRoady 1.4.2</text>
<text text-anchor="start" x="8" y="-971.6" font-family="Times,serif" font-size="13.00">http://railroady.prestonlee.com</text>
</g>
<!-- Person -->
<g id="node2" class="node"><title>Person</title>
<path fill="none" stroke="black" d="M426,-912.5C426,-912.5 576,-912.5 576,-912.5 582,-912.5 588,-918.5 588,-924.5 588,-924.5 588,-1081.5 588,-1081.5 588,-1087.5 582,-1093.5 576,-1093.5 576,-1093.5 426,-1093.5 426,-1093.5 420,-1093.5 414,-1087.5 414,-1081.5 414,-1081.5 414,-924.5 414,-924.5 414,-918.5 420,-912.5 426,-912.5"/>
<text text-anchor="middle" x="501" y="-1078.3" font-family="Times,serif" font-size="14.00">Person</text>
<polyline fill="none" stroke="black" points="414,-1070.5 588,-1070.5 "/>
<text text-anchor="start" x="422" y="-1055.3" font-family="Times,serif" font-size="14.00">id :INTEGER</text>
<text text-anchor="start" x="422" y="-1040.3" font-family="Times,serif" font-size="14.00">name :varchar</text>
<text text-anchor="start" x="422" y="-1025.3" font-family="Times,serif" font-size="14.00">origin_name :varchar</text>
<text text-anchor="start" x="422" y="-1010.3" font-family="Times,serif" font-size="14.00">birthday :date</text>
<text text-anchor="start" x="422" y="-995.3" font-family="Times,serif" font-size="14.00">avatar_file_name :varchar</text>
<text text-anchor="start" x="422" y="-980.3" font-family="Times,serif" font-size="14.00">avatar_content_type :varchar</text>
<text text-anchor="start" x="422" y="-965.3" font-family="Times,serif" font-size="14.00">avatar_file_size :integer</text>
<text text-anchor="start" x="422" y="-950.3" font-family="Times,serif" font-size="14.00">avatar_updated_at :datetime</text>
<text text-anchor="start" x="422" y="-935.3" font-family="Times,serif" font-size="14.00">created_at :datetime</text>
<text text-anchor="start" x="422" y="-920.3" font-family="Times,serif" font-size="14.00">updated_at :datetime</text>
</g>
<!-- Film -->
<g id="node5" class="node"><title>Film</title>
<path fill="none" stroke="black" d="M487.5,-574.5C487.5,-574.5 634.5,-574.5 634.5,-574.5 640.5,-574.5 646.5,-580.5 646.5,-586.5 646.5,-586.5 646.5,-848.5 646.5,-848.5 646.5,-854.5 640.5,-860.5 634.5,-860.5 634.5,-860.5 487.5,-860.5 487.5,-860.5 481.5,-860.5 475.5,-854.5 475.5,-848.5 475.5,-848.5 475.5,-586.5 475.5,-586.5 475.5,-580.5 481.5,-574.5 487.5,-574.5"/>
<text text-anchor="middle" x="561" y="-845.3" font-family="Times,serif" font-size="14.00">Film</text>
<polyline fill="none" stroke="black" points="475.5,-837.5 646.5,-837.5 "/>
<text text-anchor="start" x="483.5" y="-822.3" font-family="Times,serif" font-size="14.00">id :INTEGER</text>
<text text-anchor="start" x="483.5" y="-807.3" font-family="Times,serif" font-size="14.00">name :varchar</text>
<text text-anchor="start" x="483.5" y="-792.3" font-family="Times,serif" font-size="14.00">origin_name :varchar</text>
<text text-anchor="start" x="483.5" y="-777.3" font-family="Times,serif" font-size="14.00">slogan :varchar</text>
<text text-anchor="start" x="483.5" y="-762.3" font-family="Times,serif" font-size="14.00">country_id :integer</text>
<text text-anchor="start" x="483.5" y="-747.3" font-family="Times,serif" font-size="14.00">genre_id :integer</text>
<text text-anchor="start" x="483.5" y="-732.3" font-family="Times,serif" font-size="14.00">director_id :integer</text>
<text text-anchor="start" x="483.5" y="-717.3" font-family="Times,serif" font-size="14.00">length :integer</text>
<text text-anchor="start" x="483.5" y="-702.3" font-family="Times,serif" font-size="14.00">year :integer</text>
<text text-anchor="start" x="483.5" y="-687.3" font-family="Times,serif" font-size="14.00">trailer_url :varchar</text>
<text text-anchor="start" x="483.5" y="-672.3" font-family="Times,serif" font-size="14.00">cover_file_name :varchar</text>
<text text-anchor="start" x="483.5" y="-657.3" font-family="Times,serif" font-size="14.00">cover_content_type :varchar</text>
<text text-anchor="start" x="483.5" y="-642.3" font-family="Times,serif" font-size="14.00">cover_file_size :integer</text>
<text text-anchor="start" x="483.5" y="-627.3" font-family="Times,serif" font-size="14.00">cover_updated_at :datetime</text>
<text text-anchor="start" x="483.5" y="-612.3" font-family="Times,serif" font-size="14.00">description :text</text>
<text text-anchor="start" x="483.5" y="-597.3" font-family="Times,serif" font-size="14.00">created_at :datetime</text>
<text text-anchor="start" x="483.5" y="-582.3" font-family="Times,serif" font-size="14.00">updated_at :datetime</text>
</g>
<!-- Person&#45;&gt;Film -->
<g id="edge1" class="edge"><title>Person&#45;&gt;Film</title>
<path fill="none" stroke="#8955b3" d="M522.134,-902.14C524.312,-891.851 526.558,-881.24 528.82,-870.55"/>
<polygon fill="#8955b3" stroke="#8955b3" points="522.055,-902.516 515.582,-911.367 521.02,-907.407 519.984,-912.299 519.984,-912.299 519.984,-912.299 521.02,-907.407 524.387,-913.231 522.055,-902.516 522.055,-902.516"/>
<polygon fill="#8955b3" stroke="#8955b3" points="528.831,-870.5 535.304,-861.649 529.866,-865.609 530.901,-860.717 530.901,-860.717 530.901,-860.717 529.866,-865.609 526.499,-859.785 528.831,-870.5 528.831,-870.5"/>
</g>
<!-- Person&#45;&gt;Film -->
<g id="edge2" class="edge"><title>Person&#45;&gt;Film</title>
<path fill="none" stroke="#218144" d="M531.465,-904.571C532.356,-901.013 533.205,-897.481 534,-894 535.738,-886.393 537.396,-878.574 538.973,-870.66"/>
<ellipse fill="none" stroke="#218144" cx="530.448" cy="-908.52" rx="4.00001" ry="4.00001"/>
<polygon fill="#218144" stroke="#218144" points="539.022,-870.411 545.345,-861.452 539.975,-865.502 540.928,-860.594 540.928,-860.594 540.928,-860.594 539.975,-865.502 536.51,-859.736 539.022,-870.411 539.022,-870.411"/>
<text text-anchor="middle" x="580" y="-882.8" font-family="Times,serif" font-size="14.00">produced_films</text>
</g>
<!-- User -->
<g id="node3" class="node"><title>User</title>
<path fill="none" stroke="black" d="M244.5,-935C244.5,-935 375.5,-935 375.5,-935 381.5,-935 387.5,-941 387.5,-947 387.5,-947 387.5,-1059 387.5,-1059 387.5,-1065 381.5,-1071 375.5,-1071 375.5,-1071 244.5,-1071 244.5,-1071 238.5,-1071 232.5,-1065 232.5,-1059 232.5,-1059 232.5,-947 232.5,-947 232.5,-941 238.5,-935 244.5,-935"/>
<text text-anchor="middle" x="310" y="-1055.8" font-family="Times,serif" font-size="14.00">User</text>
<polyline fill="none" stroke="black" points="232.5,-1048 387.5,-1048 "/>
<text text-anchor="start" x="240.5" y="-1032.8" font-family="Times,serif" font-size="14.00">id :INTEGER</text>
<text text-anchor="start" x="240.5" y="-1017.8" font-family="Times,serif" font-size="14.00">name :varchar</text>
<text text-anchor="start" x="240.5" y="-1002.8" font-family="Times,serif" font-size="14.00">email :varchar</text>
<text text-anchor="start" x="240.5" y="-987.8" font-family="Times,serif" font-size="14.00">password_digest :varchar</text>
<text text-anchor="start" x="240.5" y="-972.8" font-family="Times,serif" font-size="14.00">role :integer</text>
<text text-anchor="start" x="240.5" y="-957.8" font-family="Times,serif" font-size="14.00">created_at :datetime</text>
<text text-anchor="start" x="240.5" y="-942.8" font-family="Times,serif" font-size="14.00">updated_at :datetime</text>
</g>
<!-- Cart -->
<g id="node4" class="node"><title>Cart</title>
<path fill="none" stroke="black" d="M246.5,-464.5C246.5,-464.5 353.5,-464.5 353.5,-464.5 359.5,-464.5 365.5,-470.5 365.5,-476.5 365.5,-476.5 365.5,-543.5 365.5,-543.5 365.5,-549.5 359.5,-555.5 353.5,-555.5 353.5,-555.5 246.5,-555.5 246.5,-555.5 240.5,-555.5 234.5,-549.5 234.5,-543.5 234.5,-543.5 234.5,-476.5 234.5,-476.5 234.5,-470.5 240.5,-464.5 246.5,-464.5"/>
<text text-anchor="middle" x="300" y="-540.3" font-family="Times,serif" font-size="14.00">Cart</text>
<polyline fill="none" stroke="black" points="234.5,-532.5 365.5,-532.5 "/>
<text text-anchor="start" x="242.5" y="-517.3" font-family="Times,serif" font-size="14.00">id :INTEGER</text>
<text text-anchor="start" x="242.5" y="-502.3" font-family="Times,serif" font-size="14.00">user_id :integer</text>
<text text-anchor="start" x="242.5" y="-487.3" font-family="Times,serif" font-size="14.00">created_at :datetime</text>
<text text-anchor="start" x="242.5" y="-472.3" font-family="Times,serif" font-size="14.00">updated_at :datetime</text>
</g>
<!-- User&#45;&gt;Cart -->
<g id="edge3" class="edge"><title>User&#45;&gt;Cart</title>
<path fill="none" stroke="#fc4cfb" d="M308.463,-926.515C306.418,-826.102 302.854,-651.129 301.075,-563.77"/>
<ellipse fill="none" stroke="#fc4cfb" cx="308.549" cy="-930.759" rx="4" ry="4"/>
<ellipse fill="#fc4cfb" stroke="#fc4cfb" cx="300.99" cy="-559.594" rx="4" ry="4"/>
</g>
<!-- Order -->
<g id="node7" class="node"><title>Order</title>
<path fill="none" stroke="black" d="M333,-627C333,-627 445,-627 445,-627 451,-627 457,-633 457,-639 457,-639 457,-796 457,-796 457,-802 451,-808 445,-808 445,-808 333,-808 333,-808 327,-808 321,-802 321,-796 321,-796 321,-639 321,-639 321,-633 327,-627 333,-627"/>
<text text-anchor="middle" x="389" y="-792.8" font-family="Times,serif" font-size="14.00">Order</text>
<polyline fill="none" stroke="black" points="321,-785 457,-785 "/>
<text text-anchor="start" x="329" y="-769.8" font-family="Times,serif" font-size="14.00">id :INTEGER</text>
<text text-anchor="start" x="329" y="-754.8" font-family="Times,serif" font-size="14.00">name :varchar</text>
<text text-anchor="start" x="329" y="-739.8" font-family="Times,serif" font-size="14.00">address :varchar</text>
<text text-anchor="start" x="329" y="-724.8" font-family="Times,serif" font-size="14.00">email :varchar</text>
<text text-anchor="start" x="329" y="-709.8" font-family="Times,serif" font-size="14.00">pay_type :integer</text>
<text text-anchor="start" x="329" y="-694.8" font-family="Times,serif" font-size="14.00">status :integer</text>
<text text-anchor="start" x="329" y="-679.8" font-family="Times,serif" font-size="14.00">delivery_type :integer</text>
<text text-anchor="start" x="329" y="-664.8" font-family="Times,serif" font-size="14.00">created_at :datetime</text>
<text text-anchor="start" x="329" y="-649.8" font-family="Times,serif" font-size="14.00">updated_at :datetime</text>
<text text-anchor="start" x="329" y="-634.8" font-family="Times,serif" font-size="14.00">user_id :integer</text>
</g>
<!-- User&#45;&gt;Order -->
<g id="edge4" class="edge"><title>User&#45;&gt;Order</title>
<path fill="none" stroke="#5e0f3d" d="M330.989,-926.677C340.277,-893.347 351.329,-853.685 361.283,-817.966"/>
<ellipse fill="none" stroke="#5e0f3d" cx="329.796" cy="-930.961" rx="4.00001" ry="4.00001"/>
<polygon fill="#5e0f3d" stroke="#5e0f3d" points="361.374,-817.638 368.393,-809.213 362.716,-812.822 364.059,-808.005 364.059,-808.005 364.059,-808.005 362.716,-812.822 359.724,-806.797 361.374,-817.638 361.374,-817.638"/>
</g>
<!-- LineItem -->
<g id="node6" class="node"><title>LineItem</title>
<path fill="none" stroke="black" d="M331.5,-0.5C331.5,-0.5 438.5,-0.5 438.5,-0.5 444.5,-0.5 450.5,-6.5 450.5,-12.5 450.5,-12.5 450.5,-139.5 450.5,-139.5 450.5,-145.5 444.5,-151.5 438.5,-151.5 438.5,-151.5 331.5,-151.5 331.5,-151.5 325.5,-151.5 319.5,-145.5 319.5,-139.5 319.5,-139.5 319.5,-12.5 319.5,-12.5 319.5,-6.5 325.5,-0.5 331.5,-0.5"/>
<text text-anchor="middle" x="385" y="-136.3" font-family="Times,serif" font-size="14.00">LineItem</text>
<polyline fill="none" stroke="black" points="319.5,-128.5 450.5,-128.5 "/>
<text text-anchor="start" x="327.5" y="-113.3" font-family="Times,serif" font-size="14.00">id :INTEGER</text>
<text text-anchor="start" x="327.5" y="-98.3" font-family="Times,serif" font-size="14.00">book_id :integer</text>
<text text-anchor="start" x="327.5" y="-83.3" font-family="Times,serif" font-size="14.00">cart_id :integer</text>
<text text-anchor="start" x="327.5" y="-68.3" font-family="Times,serif" font-size="14.00">created_at :datetime</text>
<text text-anchor="start" x="327.5" y="-53.3" font-family="Times,serif" font-size="14.00">updated_at :datetime</text>
<text text-anchor="start" x="327.5" y="-38.3" font-family="Times,serif" font-size="14.00">quantity :integer</text>
<text text-anchor="start" x="327.5" y="-23.3" font-family="Times,serif" font-size="14.00">order_id :integer</text>
<text text-anchor="start" x="327.5" y="-8.3" font-family="Times,serif" font-size="14.00">price :decimal</text>
</g>
<!-- Cart&#45;&gt;LineItem -->
<g id="edge5" class="edge"><title>Cart&#45;&gt;LineItem</title>
<path fill="none" stroke="#d9ac1c" d="M310.364,-456.325C324.812,-382.897 351.164,-248.965 368.376,-161.491"/>
<ellipse fill="none" stroke="#d9ac1c" cx="309.549" cy="-460.471" rx="4.00001" ry="4.00001"/>
<polygon fill="#d9ac1c" stroke="#d9ac1c" points="368.393,-161.402 374.739,-152.459 369.358,-156.496 370.324,-151.59 370.324,-151.59 370.324,-151.59 369.358,-156.496 365.908,-150.721 368.393,-161.402 368.393,-161.402"/>
</g>
<!-- Book -->
<g id="node9" class="node"><title>Book</title>
<path fill="none" stroke="black" d="M425.5,-189.5C425.5,-189.5 572.5,-189.5 572.5,-189.5 578.5,-189.5 584.5,-195.5 584.5,-201.5 584.5,-201.5 584.5,-433.5 584.5,-433.5 584.5,-439.5 578.5,-445.5 572.5,-445.5 572.5,-445.5 425.5,-445.5 425.5,-445.5 419.5,-445.5 413.5,-439.5 413.5,-433.5 413.5,-433.5 413.5,-201.5 413.5,-201.5 413.5,-195.5 419.5,-189.5 425.5,-189.5"/>
<text text-anchor="middle" x="499" y="-430.3" font-family="Times,serif" font-size="14.00">Book</text>
<polyline fill="none" stroke="black" points="413.5,-422.5 584.5,-422.5 "/>
<text text-anchor="start" x="421.5" y="-407.3" font-family="Times,serif" font-size="14.00">id :INTEGER</text>
<text text-anchor="start" x="421.5" y="-392.3" font-family="Times,serif" font-size="14.00">title :varchar</text>
<text text-anchor="start" x="421.5" y="-377.3" font-family="Times,serif" font-size="14.00">description :text</text>
<text text-anchor="start" x="421.5" y="-362.3" font-family="Times,serif" font-size="14.00">cover_file_name :varchar</text>
<text text-anchor="start" x="421.5" y="-347.3" font-family="Times,serif" font-size="14.00">cover_content_type :varchar</text>
<text text-anchor="start" x="421.5" y="-332.3" font-family="Times,serif" font-size="14.00">cover_file_size :integer</text>
<text text-anchor="start" x="421.5" y="-317.3" font-family="Times,serif" font-size="14.00">cover_updated_at :datetime</text>
<text text-anchor="start" x="421.5" y="-302.3" font-family="Times,serif" font-size="14.00">price :decimal(8,2)</text>
<text text-anchor="start" x="421.5" y="-287.3" font-family="Times,serif" font-size="14.00">amount :integer</text>
<text text-anchor="start" x="421.5" y="-272.3" font-family="Times,serif" font-size="14.00">author :varchar</text>
<text text-anchor="start" x="421.5" y="-257.3" font-family="Times,serif" font-size="14.00">series :varchar</text>
<text text-anchor="start" x="421.5" y="-242.3" font-family="Times,serif" font-size="14.00">year :integer</text>
<text text-anchor="start" x="421.5" y="-227.3" font-family="Times,serif" font-size="14.00">publishing :varchar</text>
<text text-anchor="start" x="421.5" y="-212.3" font-family="Times,serif" font-size="14.00">created_at :datetime</text>
<text text-anchor="start" x="421.5" y="-197.3" font-family="Times,serif" font-size="14.00">updated_at :datetime</text>
</g>
<!-- Film&#45;&gt;Book -->
<g id="edge6" class="edge"><title>Film&#45;&gt;Book</title>
<path fill="none" stroke="#bf3798" d="M537.333,-564.572C531.763,-528.82 525.859,-490.918 520.396,-455.85"/>
<polygon fill="#bf3798" stroke="#bf3798" points="537.34,-564.618 534.433,-575.191 538.11,-569.558 538.879,-574.498 538.879,-574.498 538.879,-574.498 538.11,-569.558 543.326,-573.806 537.34,-564.618 537.34,-564.618"/>
<polygon fill="#bf3798" stroke="#bf3798" points="520.331,-455.433 523.238,-444.86 519.562,-450.493 518.792,-445.552 518.792,-445.552 518.792,-445.552 519.562,-450.493 514.346,-446.245 520.331,-455.433 520.331,-455.433"/>
</g>
<!-- Order&#45;&gt;LineItem -->
<g id="edge7" class="edge"><title>Order&#45;&gt;LineItem</title>
<path fill="none" stroke="#4fe0b7" d="M388.388,-618.58C387.606,-493.696 386.269,-279.805 385.529,-161.646"/>
<ellipse fill="none" stroke="#4fe0b7" cx="388.415" cy="-622.907" rx="4" ry="4"/>
<polygon fill="#4fe0b7" stroke="#4fe0b7" points="385.529,-161.563 389.966,-151.535 385.498,-156.563 385.466,-151.563 385.466,-151.563 385.466,-151.563 385.498,-156.563 380.966,-151.591 385.529,-161.563 385.529,-161.563"/>
</g>
<!-- Order&#45;&gt;Book -->
<g id="edge8" class="edge"><title>Order&#45;&gt;Book</title>
<path fill="none" stroke="#4a035a" d="M416.55,-616.82C430.035,-568.028 446.481,-508.523 461.127,-455.53"/>
<polygon fill="#4a035a" stroke="#4a035a" points="416.487,-617.046 409.486,-625.486 415.155,-621.865 413.823,-626.685 413.823,-626.685 413.823,-626.685 415.155,-621.865 418.161,-627.884 416.487,-617.046 416.487,-617.046"/>
<polygon fill="#4a035a" stroke="#4a035a" points="461.176,-455.354 468.177,-446.914 462.508,-450.535 463.84,-445.715 463.84,-445.715 463.84,-445.715 462.508,-450.535 459.503,-444.517 461.176,-455.354 461.176,-455.354"/>
</g>
<!-- Country -->
<g id="node8" class="node"><title>Country</title>
<path fill="none" stroke="black" d="M618.5,-957.5C618.5,-957.5 725.5,-957.5 725.5,-957.5 731.5,-957.5 737.5,-963.5 737.5,-969.5 737.5,-969.5 737.5,-1036.5 737.5,-1036.5 737.5,-1042.5 731.5,-1048.5 725.5,-1048.5 725.5,-1048.5 618.5,-1048.5 618.5,-1048.5 612.5,-1048.5 606.5,-1042.5 606.5,-1036.5 606.5,-1036.5 606.5,-969.5 606.5,-969.5 606.5,-963.5 612.5,-957.5 618.5,-957.5"/>
<text text-anchor="middle" x="672" y="-1033.3" font-family="Times,serif" font-size="14.00">Country</text>
<polyline fill="none" stroke="black" points="606.5,-1025.5 737.5,-1025.5 "/>
<text text-anchor="start" x="614.5" y="-1010.3" font-family="Times,serif" font-size="14.00">id :INTEGER</text>
<text text-anchor="start" x="614.5" y="-995.3" font-family="Times,serif" font-size="14.00">name :varchar</text>
<text text-anchor="start" x="614.5" y="-980.3" font-family="Times,serif" font-size="14.00">created_at :datetime</text>
<text text-anchor="start" x="614.5" y="-965.3" font-family="Times,serif" font-size="14.00">updated_at :datetime</text>
</g>
<!-- Country&#45;&gt;Film -->
<g id="edge9" class="edge"><title>Country&#45;&gt;Film</title>
<path fill="none" stroke="#f6c37a" d="M653.432,-949.841C645.486,-927.895 635.984,-902.132 627,-879 625.864,-876.075 624.711,-873.123 623.545,-870.15"/>
<ellipse fill="none" stroke="#f6c37a" cx="654.815" cy="-953.672" rx="4.00001" ry="4.00001"/>
<polygon fill="#f6c37a" stroke="#f6c37a" points="623.446,-869.897 623.965,-858.944 621.612,-865.246 619.779,-860.594 619.779,-860.594 619.779,-860.594 621.612,-865.246 615.592,-862.244 623.446,-869.897 623.446,-869.897"/>
</g>
<!-- Book&#45;&gt;LineItem -->
<g id="edge10" class="edge"><title>Book&#45;&gt;LineItem</title>
<path fill="none" stroke="#47790e" d="M435.055,-182.16C431.649,-175.004 428.276,-167.918 424.987,-161.007"/>
<ellipse fill="none" stroke="#47790e" cx="436.776" cy="-185.775" rx="4.00002" ry="4.00002"/>
<polygon fill="#47790e" stroke="#47790e" points="424.855,-160.731 424.62,-149.767 422.706,-156.216 420.557,-151.701 420.557,-151.701 420.557,-151.701 422.706,-156.216 416.494,-153.635 424.855,-160.731 424.855,-160.731"/>
</g>
<!-- Genre -->
<g id="node10" class="node"><title>Genre</title>
<path fill="none" stroke="black" d="M767.5,-957.5C767.5,-957.5 874.5,-957.5 874.5,-957.5 880.5,-957.5 886.5,-963.5 886.5,-969.5 886.5,-969.5 886.5,-1036.5 886.5,-1036.5 886.5,-1042.5 880.5,-1048.5 874.5,-1048.5 874.5,-1048.5 767.5,-1048.5 767.5,-1048.5 761.5,-1048.5 755.5,-1042.5 755.5,-1036.5 755.5,-1036.5 755.5,-969.5 755.5,-969.5 755.5,-963.5 761.5,-957.5 767.5,-957.5"/>
<text text-anchor="middle" x="821" y="-1033.3" font-family="Times,serif" font-size="14.00">Genre</text>
<polyline fill="none" stroke="black" points="755.5,-1025.5 886.5,-1025.5 "/>
<text text-anchor="start" x="763.5" y="-1010.3" font-family="Times,serif" font-size="14.00">id :INTEGER</text>
<text text-anchor="start" x="763.5" y="-995.3" font-family="Times,serif" font-size="14.00">name :varchar</text>
<text text-anchor="start" x="763.5" y="-980.3" font-family="Times,serif" font-size="14.00">created_at :datetime</text>
<text text-anchor="start" x="763.5" y="-965.3" font-family="Times,serif" font-size="14.00">updated_at :datetime</text>
</g>
<!-- Genre&#45;&gt;Film -->
<g id="edge11" class="edge"><title>Genre&#45;&gt;Film</title>
<path fill="none" stroke="#bda651" d="M780.385,-951.2C769.718,-938.25 758.09,-924.47 747,-912 717.472,-878.798 684.135,-843.483 653.924,-812.237"/>
<ellipse fill="none" stroke="#bda651" cx="783" cy="-954.389" rx="4.00002" ry="4.00002"/>
<polygon fill="#bda651" stroke="#bda651" points="653.68,-811.985 649.953,-801.672 650.201,-808.394 646.722,-804.803 646.722,-804.803 646.722,-804.803 650.201,-808.394 643.49,-807.935 653.68,-811.985 653.68,-811.985"/>
</g>
</g>
</svg>
