<?xml version="1.0" encoding="UTF-8" standalone="no"?>
<!DOCTYPE svg PUBLIC "-//W3C//DTD SVG 1.1//EN"
 "http://www.w3.org/Graphics/SVG/1.1/DTD/svg11.dtd">
<!-- Generated by graphviz version 2.38.0 (20140413.2041)
 -->
<!-- Title: models_diagram Pages: 1 -->
<svg width="590pt" height="354pt"
 viewBox="0.00 0.00 590.50 354.00" xmlns="http://www.w3.org/2000/svg" xmlns:xlink="http://www.w3.org/1999/xlink">
<g id="graph0" class="graph" transform="scale(1 1) rotate(0) translate(4 350)">
<title>models_diagram</title>
<polygon fill="none" stroke="none" points="-4,4 -4,-350 586.497,-350 586.497,4 -4,4"/>
<!-- _diagram_info -->
<g id="node1" class="node"><title>_diagram_info</title>
<text text-anchor="start" x="8" y="-331.6" font-family="Times,serif" font-size="13.00">Models diagram</text>
<text text-anchor="start" x="8" y="-317.6" font-family="Times,serif" font-size="13.00">Date: May 04 2016 &#45; 23:25</text>
<text text-anchor="start" x="8" y="-303.6" font-family="Times,serif" font-size="13.00">Migration version: 20160504120454</text>
<text text-anchor="start" x="8" y="-289.6" font-family="Times,serif" font-size="13.00">Generated by RailRoady 1.4.2</text>
<text text-anchor="start" x="8" y="-275.6" font-family="Times,serif" font-size="13.00">http://railroady.prestonlee.com</text>
</g>
<!-- Person -->
<g id="node2" class="node"><title>Person</title>
<ellipse fill="none" stroke="black" cx="352" cy="-307" rx="34.394" ry="18"/>
<text text-anchor="middle" x="352" y="-303.3" font-family="Times,serif" font-size="14.00">Person</text>
</g>
<!-- Film -->
<g id="node5" class="node"><title>Film</title>
<ellipse fill="none" stroke="black" cx="366" cy="-199" rx="27.8951" ry="18"/>
<text text-anchor="middle" x="366" y="-195.3" font-family="Times,serif" font-size="14.00">Film</text>
</g>
<!-- Person&#45;&gt;Film -->
<g id="edge1" class="edge"><title>Person&#45;&gt;Film</title>
<path fill="none" stroke="#9b4d5c" d="M341.557,-279.614C337.676,-266.043 335.245,-249.376 340,-235 341.364,-230.877 343.422,-226.844 345.796,-223.067"/>
<polygon fill="#9b4d5c" stroke="#9b4d5c" points="341.615,-279.792 340.434,-290.694 343.164,-284.546 344.713,-289.3 344.713,-289.3 344.713,-289.3 343.164,-284.546 348.992,-287.905 341.615,-279.792 341.615,-279.792"/>
<polygon fill="#9b4d5c" stroke="#9b4d5c" points="345.897,-222.926 355.382,-217.424 348.811,-218.863 351.726,-214.801 351.726,-214.801 351.726,-214.801 348.811,-218.863 348.069,-212.178 345.897,-222.926 345.897,-222.926"/>
</g>
<!-- Person&#45;&gt;Film -->
<g id="edge2" class="edge"><title>Person&#45;&gt;Film</title>
<path fill="none" stroke="#55d484" d="M354.485,-280.782C355.913,-267.194 357.849,-250.154 360,-235 360.364,-232.436 360.77,-229.772 361.194,-227.109"/>
<ellipse fill="none" stroke="#55d484" cx="354.074" cy="-284.769" rx="4" ry="4"/>
<polygon fill="#55d484" stroke="#55d484" points="361.225,-226.922 367.312,-217.8 362.049,-221.991 362.873,-217.059 362.873,-217.059 362.873,-217.059 362.049,-221.991 358.435,-216.317 361.225,-226.922 361.225,-226.922"/>
<text text-anchor="middle" x="403" y="-238.8" font-family="Times,serif" font-size="14.00">produced_films</text>
</g>
<!-- User -->
<g id="node3" class="node"><title>User</title>
<ellipse fill="none" stroke="black" cx="259" cy="-307" rx="27.0966" ry="18"/>
<text text-anchor="middle" x="259" y="-303.3" font-family="Times,serif" font-size="14.00">User</text>
</g>
<!-- Cart -->
<g id="node4" class="node"><title>Cart</title>
<ellipse fill="none" stroke="black" cx="238" cy="-145" rx="27" ry="18"/>
<text text-anchor="middle" x="238" y="-141.3" font-family="Times,serif" font-size="14.00">Cart</text>
</g>
<!-- User&#45;&gt;Cart -->
<g id="edge3" class="edge"><title>User&#45;&gt;Cart</title>
<path fill="none" stroke="#4e1c26" d="M255.674,-280.658C251.742,-250.703 245.24,-201.159 241.314,-171.246"/>
<ellipse fill="none" stroke="#4e1c26" cx="256.232" cy="-284.911" rx="4.00001" ry="4.00001"/>
<ellipse fill="#4e1c26" stroke="#4e1c26" cx="240.752" cy="-166.966" rx="4.00001" ry="4.00001"/>
</g>
<!-- Order -->
<g id="node7" class="node"><title>Order</title>
<ellipse fill="none" stroke="black" cx="289" cy="-199" rx="31.3957" ry="18"/>
<text text-anchor="middle" x="289" y="-195.3" font-family="Times,serif" font-size="14.00">Order</text>
</g>
<!-- User&#45;&gt;Order -->
<g id="edge4" class="edge"><title>User&#45;&gt;Order</title>
<path fill="none" stroke="#5aee17" d="M265.999,-281.271C270.628,-264.914 276.696,-243.476 281.436,-226.725"/>
<ellipse fill="none" stroke="#5aee17" cx="264.909" cy="-285.12" rx="4.00001" ry="4.00001"/>
<polygon fill="#5aee17" stroke="#5aee17" points="281.469,-226.611 288.522,-218.214 282.83,-221.8 284.192,-216.988 284.192,-216.988 284.192,-216.988 282.83,-221.8 279.862,-215.763 281.469,-226.611 281.469,-226.611"/>
</g>
<!-- LineItem -->
<g id="node6" class="node"><title>LineItem</title>
<ellipse fill="none" stroke="black" cx="284" cy="-18" rx="43.5923" ry="18"/>
<text text-anchor="middle" x="284" y="-14.3" font-family="Times,serif" font-size="14.00">LineItem</text>
</g>
<!-- Cart&#45;&gt;LineItem -->
<g id="edge5" class="edge"><title>Cart&#45;&gt;LineItem</title>
<path fill="none" stroke="#c50580" d="M246.407,-119.543C252.718,-101.389 261.668,-76.0638 270,-54 271.04,-51.2449 272.148,-48.3769 273.266,-45.5208"/>
<ellipse fill="none" stroke="#c50580" cx="245.015" cy="-123.562" rx="4.00001" ry="4.00001"/>
<polygon fill="#c50580" stroke="#c50580" points="273.341,-45.3323 281.213,-37.6984 275.186,-40.6852 277.031,-36.038 277.031,-36.038 277.031,-36.038 275.186,-40.6852 272.848,-34.3775 273.341,-45.3323 273.341,-45.3323"/>
</g>
<!-- Book -->
<g id="node9" class="node"><title>Book</title>
<ellipse fill="none" stroke="black" cx="342" cy="-91" rx="29.795" ry="18"/>
<text text-anchor="middle" x="342" y="-87.3" font-family="Times,serif" font-size="14.00">Book</text>
</g>
<!-- Film&#45;&gt;Book -->
<g id="edge6" class="edge"><title>Film&#45;&gt;Book</title>
<path fill="none" stroke="#c1e515" d="M359.918,-171.137C356.289,-155.11 351.697,-134.829 348.071,-118.811"/>
<polygon fill="#c1e515" stroke="#c1e515" points="359.936,-171.216 357.755,-181.963 361.04,-176.093 362.144,-180.969 362.144,-180.969 362.144,-180.969 361.04,-176.093 366.533,-179.976 359.936,-171.216 359.936,-171.216"/>
<polygon fill="#c1e515" stroke="#c1e515" points="348.055,-118.742 350.235,-107.995 346.951,-113.865 345.846,-108.988 345.846,-108.988 345.846,-108.988 346.951,-113.865 341.458,-109.982 348.055,-118.742 348.055,-118.742"/>
</g>
<!-- Order&#45;&gt;LineItem -->
<g id="edge7" class="edge"><title>Order&#45;&gt;LineItem</title>
<path fill="none" stroke="#2d87a3" d="M288.289,-172.557C287.356,-139.14 285.723,-80.6911 284.764,-46.3512"/>
<ellipse fill="none" stroke="#2d87a3" cx="288.409" cy="-176.838" rx="4" ry="4"/>
<polygon fill="#2d87a3" stroke="#2d87a3" points="284.757,-46.1074 288.976,-35.9856 284.618,-41.1094 284.478,-36.1113 284.478,-36.1113 284.478,-36.1113 284.618,-41.1094 279.98,-36.237 284.757,-46.1074 284.757,-46.1074"/>
</g>
<!-- Order&#45;&gt;Book -->
<g id="edge8" class="edge"><title>Order&#45;&gt;Book</title>
<path fill="none" stroke="#a13476" d="M301.839,-172.321C310.147,-155.707 320.919,-134.162 329.216,-117.569"/>
<polygon fill="#a13476" stroke="#a13476" points="301.753,-172.493 293.256,-179.425 299.517,-176.965 297.281,-181.438 297.281,-181.438 297.281,-181.438 299.517,-176.965 301.306,-183.45 301.753,-172.493 301.753,-172.493"/>
<polygon fill="#a13476" stroke="#a13476" points="329.305,-117.39 337.802,-110.459 331.541,-112.918 333.777,-108.446 333.777,-108.446 333.777,-108.446 331.541,-112.918 329.752,-106.434 329.305,-117.39 329.305,-117.39"/>
</g>
<!-- Country -->
<g id="node8" class="node"><title>Country</title>
<ellipse fill="none" stroke="black" cx="460" cy="-307" rx="39.7935" ry="18"/>
<text text-anchor="middle" x="460" y="-303.3" font-family="Times,serif" font-size="14.00">Country</text>
</g>
<!-- Country&#45;&gt;Film -->
<g id="edge9" class="edge"><title>Country&#45;&gt;Film</title>
<path fill="none" stroke="#6802a0" d="M460.604,-280.726C459.698,-265.959 456.258,-247.775 446,-235 435.177,-221.521 418.125,-213.106 402.539,-207.918"/>
<ellipse fill="none" stroke="#6802a0" cx="460.745" cy="-284.961" rx="4" ry="4"/>
<polygon fill="#6802a0" stroke="#6802a0" points="402.173,-207.809 393.874,-200.641 397.381,-206.381 392.589,-204.953 392.589,-204.953 392.589,-204.953 397.381,-206.381 391.304,-209.266 402.173,-207.809 402.173,-207.809"/>
</g>
<!-- Book&#45;&gt;LineItem -->
<g id="edge10" class="edge"><title>Book&#45;&gt;LineItem</title>
<path fill="none" stroke="#86284b" d="M324.262,-68.2866C317.767,-60.3361 310.38,-51.2933 303.723,-43.1431"/>
<ellipse fill="none" stroke="#86284b" cx="326.884" cy="-71.4963" rx="4.00002" ry="4.00002"/>
<polygon fill="#86284b" stroke="#86284b" points="303.694,-43.1085 300.853,-32.5171 300.531,-39.2363 297.368,-35.364 297.368,-35.364 297.368,-35.364 300.531,-39.2363 293.883,-38.211 303.694,-43.1085 303.694,-43.1085"/>
</g>
<!-- Genre -->
<g id="node10" class="node"><title>Genre</title>
<ellipse fill="none" stroke="black" cx="550" cy="-307" rx="32.4942" ry="18"/>
<text text-anchor="middle" x="550" y="-303.3" font-family="Times,serif" font-size="14.00">Genre</text>
</g>
<!-- Genre&#45;&gt;Film -->
<g id="edge11" class="edge"><title>Genre&#45;&gt;Film</title>
<path fill="none" stroke="#488843" d="M528.537,-285.166C522.369,-279.441 515.539,-273.341 509,-268 489.513,-252.084 485.268,-246.715 463,-235 443.257,-224.614 419.753,-216.046 400.826,-209.988"/>
<ellipse fill="none" stroke="#488843" cx="531.535" cy="-287.985" rx="4.00002" ry="4.00002"/>
<polygon fill="#488843" stroke="#488843" points="400.662,-209.937 392.449,-202.671 395.888,-208.452 391.113,-206.968 391.113,-206.968 391.113,-206.968 395.888,-208.452 389.777,-211.265 400.662,-209.937 400.662,-209.937"/>
</g>
</g>
</svg>
